<?xml version="1.0" encoding="UTF-8" standalone="no"?>
<svg
   width="240.53972"
   zoomAndPan="magnify"
   viewBox="0 0 180.40479 101.2544"
   height="135.00587"
   preserveAspectRatio="xMidYMid"
   version="1.0"
   id="svg29"
   xmlns="http://www.w3.org/2000/svg"
   xmlns:svg="http://www.w3.org/2000/svg">
  <defs
     id="defs1">
    <clipPath
       id="e70fe8a237">
      <path
         d="m 132.64844,122.91016 h 109.5 v 66 h -109.5 z m 0,0"
         clip-rule="nonzero"
         id="path1" />
    </clipPath>
  </defs>
  <g
     clip-path="url(#e70fe8a237)"
     id="g2"
     transform="translate(-96.992186,-122.91015)">
    <path
       fill="#b91c1c"
       d="m 166.73047,164.62891 -7.41797,8.55859 -26.58984,-26.28906 h 16.39843 z m 59.875,-17.73047 -21.01172,24.16797 -16.03125,-16.02735 -22.49219,25.81641 8.16016,8.0664 14.57422,-16.88281 16.15234,15.91016 36.3125,-41.05078 z M 188.5,122.91016 l -22.25781,25.20312 8.04687,8.31641 14.66797,-17.21485 16.30469,16.30469 7.55859,-8.62109 z m 0,0"
       fill-opacity="1"
       fill-rule="nonzero"
       id="path2" />
  </g>
  <g
     fill="#b91c1c"
     fill-opacity="1"
     id="g5"
     transform="translate(-96.992186,-122.91015)">
    <g
       transform="translate(96.445311,223.86769)"
       id="g4">
      <g
         id="g3">
        <path
           d="M 28.53125,-17.5 22.796875,0 h -4.34375 L 14.59375,-11.84375 10.625,0 H 6.296875 l -5.75,-17.5 H 4.75 L 8.703125,-5.203125 12.828125,-17.5 h 3.75 l 4,12.40625 L 24.65625,-17.5 Z m 0,0"
           id="path3" />
      </g>
    </g>
  </g>
  <g
     fill="#b91c1c"
     fill-opacity="1"
     id="g8"
     transform="translate(-96.992186,-122.91015)">
    <g
       transform="translate(127.7657,223.86769)"
       id="g7">
      <g
         id="g6">
        <path
           d="m 10.546875,0.296875 c -1.8125,0 -3.449219,-0.390625 -4.90625,-1.171875 C 4.179688,-1.65625 3.035156,-2.734375 2.203125,-4.109375 1.378906,-5.484375 0.96875,-7.03125 0.96875,-8.75 c 0,-1.71875 0.410156,-3.265625 1.234375,-4.640625 0.832031,-1.375 1.976563,-2.453125 3.4375,-3.234375 1.457031,-0.78125 3.09375,-1.171875 4.90625,-1.171875 1.820313,0 3.457031,0.390625 4.90625,1.171875 1.445313,0.78125 2.585937,1.859375 3.421875,3.234375 0.832031,1.375 1.25,2.921875 1.25,4.640625 0,1.71875 -0.417969,3.265625 -1.25,4.640625 -0.835938,1.375 -1.976562,2.453125 -3.421875,3.234375 -1.449219,0.78125 -3.085937,1.171875 -4.90625,1.171875 z m 0,-3.453125 c 1.03125,0 1.960937,-0.234375 2.796875,-0.703125 C 14.175781,-4.335938 14.832031,-5 15.3125,-5.84375 c 0.476562,-0.851562 0.71875,-1.820312 0.71875,-2.90625 0,-1.082031 -0.242188,-2.046875 -0.71875,-2.890625 -0.480469,-0.851563 -1.136719,-1.515625 -1.96875,-1.984375 -0.835938,-0.476562 -1.765625,-0.71875 -2.796875,-0.71875 -1.03125,0 -1.964844,0.242188 -2.796875,0.71875 -0.835938,0.46875 -1.492188,1.132812 -1.96875,1.984375 -0.46875,0.84375 -0.703125,1.808594 -0.703125,2.890625 0,1.085938 0.234375,2.054688 0.703125,2.90625 C 6.257812,-5 6.914062,-4.335938 7.75,-3.859375 c 0.832031,0.46875 1.765625,0.703125 2.796875,0.703125 z m 0,0"
           id="path5" />
      </g>
    </g>
  </g>
  <g
     fill="#b91c1c"
     fill-opacity="1"
     id="g11"
     transform="translate(-96.992186,-122.91015)">
    <g
       transform="translate(151.11235,223.86769)"
       id="g10">
      <g
         id="g9">
        <path
           d="m 13.21875,0 -3.375,-4.875 H 6.125 V 0 H 2.078125 V -17.5 H 9.65625 c 1.539062,0 2.882812,0.261719 4.03125,0.78125 1.144531,0.511719 2.023438,1.246094 2.640625,2.203125 0.613281,0.949219 0.921875,2.070313 0.921875,3.359375 0,1.304688 -0.3125,2.429688 -0.9375,3.375 -0.625,0.9375 -1.511719,1.65625 -2.65625,2.15625 L 17.578125,0 Z m -0.0625,-11.15625 c 0,-0.976562 -0.320312,-1.726562 -0.953125,-2.25 -0.636719,-0.53125 -1.5625,-0.796875 -2.78125,-0.796875 H 6.125 v 6.109375 h 3.296875 c 1.21875,0 2.144531,-0.265625 2.78125,-0.796875 0.632813,-0.539063 0.953125,-1.296875 0.953125,-2.265625 z m 0,0"
           id="path8" />
      </g>
    </g>
  </g>
  <g
     fill="#b91c1c"
     fill-opacity="1"
     id="g14"
     transform="translate(-96.992186,-122.91015)">
    <g
       transform="translate(171.73444,223.86769)"
       id="g13">
      <g
         id="g12">
        <path
           d="M 8.453125,-6.875 6.09375,-4.421875 V 0 H 2.078125 V -17.5 H 6.09375 v 8.171875 l 7.75,-8.171875 h 4.5 l -7.25,7.796875 L 18.78125,0 h -4.734375 z m 0,0"
           id="path11" />
      </g>
    </g>
  </g>
  <g
     fill="#b91c1c"
     fill-opacity="1"
     id="g20"
     transform="translate(-96.992186,-122.91015)">
    <g
       transform="translate(201.80539,223.86769)"
       id="g19">
      <g
         id="g18">
        <path
           d="M 28.53125,-17.5 22.796875,0 h -4.34375 L 14.59375,-11.84375 10.625,0 H 6.296875 l -5.75,-17.5 H 4.75 L 8.703125,-5.203125 12.828125,-17.5 h 3.75 l 4,12.40625 L 24.65625,-17.5 Z m 0,0"
           id="path17" />
      </g>
    </g>
  </g>
  <g
     fill="#b91c1c"
     fill-opacity="1"
     id="g23"
     transform="translate(-96.992186,-122.91015)">
    <g
       transform="translate(233.12579,223.86769)"
       id="g22">
      <g
         id="g21">
        <path
           d="M 2.078125,-17.5 H 6.125 V 0 H 2.078125 Z m 0,0"
           id="path20" />
      </g>
    </g>
  </g>
  <g
     fill="#b91c1c"
     fill-opacity="1"
     id="g26"
     transform="translate(-96.992186,-122.91015)">
    <g
       transform="translate(243.5745,223.86769)"
       id="g25">
      <g
         id="g24">
        <path
           d="m 7.828125,0.296875 c -1.386719,0 -2.726563,-0.1875 -4.015625,-0.5625 C 2.519531,-0.640625 1.484375,-1.125 0.703125,-1.71875 l 1.375,-3.0625 c 0.75,0.554688 1.640625,0.996094 2.671875,1.328125 1.03125,0.335937 2.0625,0.5 3.09375,0.5 1.15625,0 2.003906,-0.164063 2.546875,-0.5 0.550781,-0.34375 0.828125,-0.800781 0.828125,-1.375 0,-0.414063 -0.164062,-0.757813 -0.484375,-1.03125 -0.324219,-0.28125 -0.742187,-0.503906 -1.25,-0.671875 -0.511719,-0.164062 -1.199219,-0.347656 -2.0625,-0.546875 -1.335937,-0.3125 -2.429687,-0.625 -3.28125,-0.9375 -0.84375,-0.320313 -1.574219,-0.832031 -2.1875,-1.53125 -0.605469,-0.695313 -0.90625,-1.628906 -0.90625,-2.796875 0,-1.019531 0.273437,-1.941406 0.828125,-2.765625 0.550781,-0.820313 1.378906,-1.472656 2.484375,-1.953125 1.113281,-0.488281 2.46875,-0.734375 4.0625,-0.734375 1.113281,0 2.203125,0.136719 3.265625,0.40625 1.070312,0.261719 2.007812,0.640625 2.8125,1.140625 l -1.25,3.078125 c -1.617188,-0.914063 -3.230469,-1.375 -4.84375,-1.375 -1.136719,0 -1.976562,0.183594 -2.515625,0.546875 -0.542969,0.367188 -0.8125,0.851562 -0.8125,1.453125 0,0.59375 0.3125,1.039063 0.9375,1.328125 0.625,0.292969 1.578125,0.585938 2.859375,0.875 1.332031,0.3125 2.421875,0.632812 3.265625,0.953125 0.851563,0.3125 1.582031,0.8125 2.1875,1.5 C 14.941406,-7.210938 15.25,-6.289062 15.25,-5.125 c 0,1 -0.28125,1.914062 -0.84375,2.734375 -0.554688,0.824219 -1.390625,1.480469 -2.515625,1.96875 -1.117187,0.4765625 -2.46875,0.71875 -4.0625,0.71875 z m 0,0"
           id="path23" />
      </g>
    </g>
  </g>
  <g
     fill="#b91c1c"
     fill-opacity="1"
     id="g29"
     transform="translate(-96.992186,-122.91015)">
    <g
       transform="translate(261.77197,223.86769)"
       id="g28">
      <g
         id="g27">
        <path
           d="M 15.625,-3.25 V 0 H 2.078125 v -17.5 h 13.21875 v 3.25 H 6.09375 v 3.796875 h 8.125 v 3.15625 h -8.125 V -3.25 Z m 0,0"
           id="path26" />
      </g>
    </g>
  </g>
</svg>
